<?xml version="1.0" encoding="UTF-8"?>
<svg width="375pt" height="375pt" version="1.2" viewBox="0 0 375 375" xmlns="http://www.w3.org/2000/svg" zoomAndPan="magnify">
  <defs>
    <clipPath id="c" xml:id="clip1">
      <path d="m111 109.12h6v29.875h-6z"/>
    </clipPath>
    <clipPath id="b" xml:id="clip2">
      <path d="m98.801 137h23.199v16h-23.199z"/>
    </clipPath>
    <clipPath id="a" xml:id="clip3">
      <path d="m99 191h53.801v68.125h-53.801z"/>
    </clipPath>
  </defs>
<g xml:id="surface1">
  <g fill="#1b1817">
    <g transform="translate(162.95 232.12)">
      <path d="m3.0469 0.125c-0.23047 0-0.41797-0.074219-0.5625-0.21875-0.13672-0.15625-0.20312-0.34766-0.20312-0.57812v-16.172c0-0.21875 0.078125-0.39844 0.23438-0.54688 0.15625-0.15625 0.34766-0.23438 0.57812-0.23438h9.25c0.21875 0 0.39062 0.058594 0.51562 0.17188 0.125 0.11719 0.1875 0.28125 0.1875 0.5s-0.0625 0.38672-0.1875 0.5c-0.125 0.10547-0.29688 0.15625-0.51562 0.15625h-8.5156v6.6719h8.0156c0.21875 0 0.39062 0.058594 0.51562 0.17188 0.125 0.11719 0.1875 0.28125 0.1875 0.5s-0.0625 0.38672-0.1875 0.5c-0.125 0.11719-0.29688 0.17188-0.51562 0.17188h-8.0156v7.6094c0 0.25-0.070313 0.44922-0.20312 0.59375-0.13672 0.13281-0.32812 0.20312-0.57812 0.20312z"/>
    </g>
  </g>
  <g fill="#1b1817">
    <g transform="translate(188.02 232.12)">
      <path d="m3.0938 0c-0.23047 0-0.42188-0.070312-0.57812-0.21875-0.15625-0.15625-0.23438-0.34375-0.23438-0.5625v-16.062c0-0.21875 0.078125-0.39844 0.23438-0.54688 0.15625-0.15625 0.34766-0.23438 0.57812-0.23438h9.5c0.21875 0 0.39062 0.058594 0.51562 0.17188 0.125 0.11719 0.1875 0.28125 0.1875 0.5 0 0.19922-0.0625 0.35938-0.1875 0.48438-0.125 0.11719-0.29688 0.17188-0.51562 0.17188h-8.7969v6.6719h8.2969c0.21875 0 0.39062 0.058594 0.51562 0.17188 0.125 0.11719 0.1875 0.28125 0.1875 0.5s-0.0625 0.38672-0.1875 0.5c-0.125 0.11719-0.29688 0.17188-0.51562 0.17188h-8.2969v6.9531h8.7969c0.21875 0 0.39062 0.058594 0.51562 0.17188 0.125 0.10547 0.1875 0.26562 0.1875 0.48438s-0.0625 0.38672-0.1875 0.5c-0.125 0.11719-0.29688 0.17188-0.51562 0.17188z"/>
    </g>
  </g>
<g fill="#1b1817">
<g transform="translate(213.75 232.12)">
<path d="m15.453-0.92188c0.09375 0.14844 0.14062 0.28906 0.14062 0.42188 0 0.1875-0.074219 0.34375-0.21875 0.46875-0.13672 0.125-0.29297 0.1875-0.46875 0.1875-0.29297 0-0.52344-0.13672-0.6875-0.40625l-3.375-5.4062c-0.48047-0.75781-0.97656-1.2812-1.4844-1.5625-0.51172-0.28906-1.2148-0.4375-2.1094-0.4375h-3.4219v6.9844c0 0.25-0.074219 0.44922-0.21875 0.59375-0.13672 0.13281-0.32422 0.20312-0.5625 0.20312-0.23047 0-0.41797-0.070312-0.5625-0.20312-0.13672-0.14453-0.20312-0.34375-0.20312-0.59375v-16.172c0-0.21875 0.078125-0.39844 0.23438-0.54688 0.15625-0.15625 0.34766-0.23438 0.57812-0.23438h6.2344c1.8438 0 3.2656 0.42188 4.2656 1.2656s1.5 2.0742 1.5 3.6875c0 1.418-0.42969 2.543-1.2812 3.375-0.84375 0.83594-2.043 1.3203-3.5938 1.4531 0.40625 0.125 0.77344 0.34375 1.1094 0.65625 0.33203 0.3125 0.67188 0.74219 1.0156 1.2812zm-6.2344-8.0469c2.9062 0 4.3594-1.2422 4.3594-3.7344 0-1.2188-0.35938-2.1172-1.0781-2.7031-0.71875-0.59375-1.8125-0.89062-3.2812-0.89062h-5.4219v7.3281z"/>
</g>
</g>
<g fill="#1b1817">
<g transform="translate(242.04 232.12)">
<path d="m15.375-17.75c0.22656 0 0.40625 0.074219 0.53125 0.21875 0.125 0.13672 0.1875 0.32812 0.1875 0.57812v16.281c0 0.23047-0.070312 0.42188-0.20312 0.57812-0.125 0.14453-0.30859 0.21875-0.54688 0.21875-0.25 0-0.47656-0.125-0.67188-0.375l-10.953-14.781v14.359c0 0.23047-0.070312 0.42188-0.20312 0.57812-0.125 0.14453-0.29688 0.21875-0.51562 0.21875-0.25 0-0.43359-0.070312-0.54688-0.20312-0.11719-0.14453-0.17188-0.34375-0.17188-0.59375v-16.281c0-0.22656 0.066406-0.41406 0.20312-0.5625 0.14453-0.15625 0.34375-0.23438 0.59375-0.23438 0.25781 0 0.47266 0.125 0.64062 0.375l10.938 14.75v-14.328c0-0.22656 0.0625-0.41406 0.1875-0.5625 0.13281-0.15625 0.3125-0.23438 0.53125-0.23438z"/>
</g>
</g>
<g fill="#1b1817">
<g transform="translate(162.95 258.37)">
<path d="m7.375 0.125c-0.23047 0-0.41406-0.074219-0.54688-0.21875-0.13672-0.15625-0.20312-0.34766-0.20312-0.57812v-15.609h-5.7812c-0.21094 0-0.375-0.054688-0.5-0.17188-0.125-0.11328-0.1875-0.28125-0.1875-0.5s0.0625-0.38281 0.1875-0.5c0.125-0.11328 0.28906-0.17188 0.5-0.17188h13.062c0.19531 0 0.35938 0.0625 0.48438 0.1875 0.13281 0.125 0.20312 0.28906 0.20312 0.48438 0 0.19922-0.070312 0.35938-0.20312 0.48438-0.125 0.125-0.28906 0.1875-0.48438 0.1875h-5.75v15.609c0 0.23047-0.074219 0.42188-0.21875 0.57812-0.14844 0.14453-0.33594 0.21875-0.5625 0.21875z"/>
</g>
</g>
<g fill="#1b1817">
<g transform="translate(188.95 258.37)">
<path d="m15.453-0.92188c0.09375 0.14844 0.14062 0.28906 0.14062 0.42188 0 0.1875-0.074219 0.34375-0.21875 0.46875-0.13672 0.125-0.29297 0.1875-0.46875 0.1875-0.29297 0-0.52344-0.13672-0.6875-0.40625l-3.375-5.4062c-0.48047-0.75781-0.97656-1.2812-1.4844-1.5625-0.51172-0.28906-1.2148-0.4375-2.1094-0.4375h-3.4219v6.9844c0 0.25-0.074219 0.44922-0.21875 0.59375-0.13672 0.13281-0.32422 0.20312-0.5625 0.20312-0.23047 0-0.41797-0.070312-0.5625-0.20312-0.13672-0.14453-0.20312-0.34375-0.20312-0.59375v-16.172c0-0.21875 0.078125-0.39844 0.23438-0.54688 0.15625-0.15625 0.34766-0.23438 0.57812-0.23438h6.2344c1.8438 0 3.2656 0.42188 4.2656 1.2656s1.5 2.0742 1.5 3.6875c0 1.418-0.42969 2.543-1.2812 3.375-0.84375 0.83594-2.043 1.3203-3.5938 1.4531 0.40625 0.125 0.77344 0.34375 1.1094 0.65625 0.33203 0.3125 0.67188 0.74219 1.0156 1.2812zm-6.2344-8.0469c2.9062 0 4.3594-1.2422 4.3594-3.7344 0-1.2188-0.35938-2.1172-1.0781-2.7031-0.71875-0.59375-1.8125-0.89062-3.2812-0.89062h-5.4219v7.3281z"/>
</g>
</g>
<g fill="#1b1817">
<g transform="translate(217.25 258.37)">
<path d="m3.0938 0c-0.23047 0-0.42188-0.070312-0.57812-0.21875-0.15625-0.15625-0.23438-0.34375-0.23438-0.5625v-16.062c0-0.21875 0.078125-0.39844 0.23438-0.54688 0.15625-0.15625 0.34766-0.23438 0.57812-0.23438h9.5c0.21875 0 0.39062 0.058594 0.51562 0.17188 0.125 0.11719 0.1875 0.28125 0.1875 0.5 0 0.19922-0.0625 0.35938-0.1875 0.48438-0.125 0.11719-0.29688 0.17188-0.51562 0.17188h-8.7969v6.6719h8.2969c0.21875 0 0.39062 0.058594 0.51562 0.17188 0.125 0.11719 0.1875 0.28125 0.1875 0.5s-0.0625 0.38672-0.1875 0.5c-0.125 0.11719-0.29688 0.17188-0.51562 0.17188h-8.2969v6.9531h8.7969c0.21875 0 0.39062 0.058594 0.51562 0.17188 0.125 0.10547 0.1875 0.26562 0.1875 0.48438s-0.0625 0.38672-0.1875 0.5c-0.125 0.11719-0.29688 0.17188-0.51562 0.17188z"/>
</g>
</g>
<g fill="#1b1817">
<g transform="translate(242.97 258.37)">
<path d="m3.0938 0c-0.23047 0-0.42188-0.070312-0.57812-0.21875-0.15625-0.15625-0.23438-0.34375-0.23438-0.5625v-16.062c0-0.21875 0.078125-0.39844 0.23438-0.54688 0.15625-0.15625 0.34766-0.23438 0.57812-0.23438h9.5c0.21875 0 0.39062 0.058594 0.51562 0.17188 0.125 0.11719 0.1875 0.28125 0.1875 0.5 0 0.19922-0.0625 0.35938-0.1875 0.48438-0.125 0.11719-0.29688 0.17188-0.51562 0.17188h-8.7969v6.6719h8.2969c0.21875 0 0.39062 0.058594 0.51562 0.17188 0.125 0.11719 0.1875 0.28125 0.1875 0.5s-0.0625 0.38672-0.1875 0.5c-0.125 0.11719-0.29688 0.17188-0.51562 0.17188h-8.2969v6.9531h8.7969c0.21875 0 0.39062 0.058594 0.51562 0.17188 0.125 0.10547 0.1875 0.26562 0.1875 0.48438s-0.0625 0.38672-0.1875 0.5c-0.125 0.11719-0.29688 0.17188-0.51562 0.17188z"/>
</g>
</g>
<path d="m126.95 179.6c-0.12109-3.0586-0.35938-5.875-0.6875-8.5742-0.0625 0.11719-0.18359 0.20703-0.30078 0.20703-0.15234 0-0.30078-0.11719-0.30078-0.26953 0-0.058594-0.03125-0.14844-0.03125-0.20703 0 0-0.027343 0-0.027343-0.03125 0.38672 3.0273 0.66016 6.2656 0.77734 9.7734 0.089844 0.12109 0.17969 0.26953 0.30078 0.42188 0-0.44922 0.12109-0.87109 0.26953-1.3203z" fill="#1b1817"/>
<path d="m126.74 189.28c-0.089844 0-0.14844-0.027344-0.23828-0.089844-0.058594 0-0.14844-0.027344-0.21094-0.027344-0.058594 1.6484-0.14844 3.3867-0.26953 5.1562 0 0.17969 0.12109 0.35938 0.30078 0.35938h0.03125c0.17969 0 0.32812-0.12109 0.32812-0.30078 0.12109-1.7695 0.21094-3.4766 0.26953-5.125-0.03125 0-0.058594 0.027344-0.058594 0.027344-0.0625-0.027344-0.089843 0-0.15234 0z" fill="#1b1817"/>
<path d="m127.01 187.51c0.0625-1.9766 0.0625-3.8672 0-5.6953-0.058594 0.03125-0.11719 0.058594-0.17969 0.058594-0.027343 0-0.089843 0-0.11719-0.027344h-0.03125c-0.03125 0-0.058594 0.027344-0.12109 0.027344-0.058594 0-0.11719 0-0.17969-0.058594-0.027343 0-0.058593-0.03125-0.058593-0.03125 0.058593 1.9805 0.058593 4.0508 0 6.1758 0.12109 0.12109 0.21094 0.24219 0.30078 0.36328 0.11719-0.30078 0.23828-0.57031 0.38672-0.8125z" fill="#1b1817"/>
<path d="m123.66 160.44c-0.03125 0.03125-0.03125 0.03125 0 0z" fill="#1b1817"/>
<path d="m119.58 147.46c0.44922 0.65625 0.86719 1.3477 1.2891 2.1562-0.03125-0.26953-0.058594-0.50781-0.058594-0.77734-0.78125-2.1914-1.5898-4.2891-2.3984-6.3594-0.27344-0.71875-0.54297-1.4375-0.8125-2.1289-0.058594 0.0625-0.14844 0.12109-0.23828 0.12109-0.15234 0-0.26953-0.12109-0.33203-0.23828-0.027344-0.089844-0.027344-0.17969-0.058594-0.24219-0.058594 0.03125-0.089844 0.03125-0.14844 0.03125h-0.089843c0.35938 0.89844 0.6875 1.8281 1.0469 2.7578 0.57031 1.4688 1.1992 3.0586 1.8008 4.6797v0z" fill="#1b1817"/>
<path d="m125.72 167.25c-0.38672-2.4609-0.86719-4.7695-1.4062-6.957 0 0.027344-0.03125 0.058594-0.03125 0.11719-0.058594 0.15234-0.17969 0.24219-0.32812 0.24219h-0.0625c-0.089843-0.03125-0.17969-0.089844-0.23828-0.17969 0.59766 2.457 1.1367 5.0664 1.5586 7.8555 0.089844 0.12109 0.17969 0.26953 0.23828 0.41797 0.03125-0.50781 0.12109-1.0195 0.26953-1.4961z" fill="#1b1817"/>
<g clip-path="url(#c)">
<path d="m116.43 137.29v0c-0.83984-2.2773-1.5898-4.5273-2.25-6.8359 0.03125-0.027344 0.0625-0.058594 0.089843-0.11719 1.7383-3.7773 2.9102-8.2461-1.7383-20.961-0.058594-0.14844-0.21094-0.23828-0.35938-0.20703-0.14844 0.027343-0.26953 0.14844-0.30078 0.29688-1.3477 11.605 0.87109 19.762 3.9883 28.215 0.30078 0.42187 0.60156 0.83984 0.87109 1.2617-0.12109-0.57031-0.24219-1.1406-0.30078-1.6523zm-4.0469-26.293c3.7773 10.824 2.9961 15.082 1.5273 18.5-1.4375-5.4883-2.1602-11.336-1.5273-18.5z" fill="#1b1817"/>
</g>
<path d="m123.75 158.13c-0.51172-1.9492-1.082-3.7773-1.6484-5.5469-0.03125 0.12109-0.15234 0.21094-0.26953 0.21094h-0.03125c-0.12109 0-0.24219-0.058594-0.30078-0.17969h-0.03125c-0.027344-0.03125-0.058594-0.0625-0.11719-0.089843 0.66016 2.0078 1.2891 4.0781 1.8867 6.2969 0.12109 0.14844 0.26953 0.29688 0.39062 0.44922 0.03125-0.39062 0.058594-0.78125 0.12109-1.1406z" fill="#1b1817"/>
<path d="m112.38 111c-0.66016 7.1641 0.089844 13.012 1.5273 18.5 1.4688-3.418 2.2812-7.707-1.5273-18.5z" fill="#1b1817"/>
<path d="m115.86 137.68c-4.1367-5.8164-9.8047-10.375-16.102-12.891-0.14844-0.0625-0.30078 0-0.39062 0.11719-0.089844 0.12109-0.089844 0.27344 0 0.39062 0.78125 1.0508 1.4727 2.0078 2.0703 2.8789 5.1289 7.1953 6.0586 8.4844 15.23 11.785h0.03125c-0.26953-0.75-0.57031-1.5312-0.83984-2.2812zm-13.883-9.8945c-0.41797-0.59766-0.89844-1.2266-1.3789-1.918 6.0586 2.6992 11.453 7.2852 15.352 13.133-8.0938-3-9.1133-4.4375-13.973-11.215z" fill="#1b1817"/>
<path d="m116.94 139.96c-0.089844-0.33203-0.14844-0.69141-0.20703-1.0195-0.26953-0.42188-0.53906-0.83984-0.87109-1.2617 0.26953 0.75 0.57031 1.5312 0.87109 2.2812h0.089843c0.027344 0.027343 0.058594 0 0.11719 0z" fill="#1b1817"/>
<path d="m100.6 125.87c0.48047 0.69141 0.96094 1.3203 1.3789 1.918 4.8594 6.7773 5.8789 8.2148 13.973 11.215-3.8984-5.8477-9.293-10.434-15.352-13.133z" fill="#1b1817"/>
<path d="m117.63 140.2c0.14844-0.53906 0.44922-1.3203 0.80859-2.2188 1.7109-4.4375 4.918-12.711 0.48047-19.277-0.089844-0.12109-0.23828-0.18359-0.35938-0.12109-0.14844 0.03125-0.24219 0.17969-0.24219 0.32812 0.03125 2.1914-0.44922 4.2305-0.95703 6.418-0.78125 3.2969-1.6484 6.9844-0.92969 11.961 0.35937 1.0195 0.75 2.0391 1.1406 3.0586 0.027344-0.027344 0.058594-0.089844 0.058594-0.14844zm0.39062-14.75c0.41797-1.832 0.83984-3.6016 0.95703-5.4297 3.3594 6.1172 0.44922 13.582-1.1367 17.723-0.17969 0.41797-0.30078 0.80859-0.44922 1.1367-1.1992-5.7266-0.24219-9.8047 0.62891-13.43z" fill="#1b1817"/>
<path d="m116.73 138.91v0c0.11719 0.17969 0.23828 0.35938 0.35938 0.53906 0.089844 0.12109 0.058594 0.26953-0.03125 0.39062-0.03125 0.03125-0.058594 0.058594-0.12109 0.089844 0.03125 0.089843 0.03125 0.17969 0.0625 0.23828 0.027344 0.15234 0.17969 0.24219 0.32812 0.24219 0.089844 0 0.17969-0.0625 0.24219-0.12109-0.39062-1.0195-0.78125-2.0391-1.1406-3.0586 0.058593 0.57031 0.17969 1.1406 0.30078 1.6797z" fill="#1b1817"/>
<path d="m117.06 139.45c-0.12109-0.17969-0.23828-0.35938-0.35938-0.53906 0.058593 0.32812 0.12109 0.66016 0.21094 1.0195 0.027344-0.03125 0.089844-0.058594 0.11719-0.089844 0.12109-0.089844 0.12109-0.26953 0.03125-0.39062z" fill="#1b1817"/>
<path d="m118.98 120.02c-0.11719 1.8281-0.53906 3.5977-0.95703 5.4297-0.87109 3.625-1.8281 7.7031-0.62891 13.43 0.11719-0.35938 0.26953-0.71875 0.44922-1.1367 1.5859-4.1094 4.4648-11.605 1.1367-17.723z" fill="#1b1817"/>
<g clip-path="url(#b)">
<path d="m119.58 147.43c-3.3594-4.8281-7.9766-6.0273-12.832-7.2852-2.4297-0.62891-4.9492-1.2617-7.4688-2.3984-0.11719-0.0625-0.29688-0.03125-0.38672 0.089843-0.089844 0.11719-0.089844 0.26953 0 0.41797 2.2188 3.1484 5.2461 4.4688 9.1133 6.1484 3.9297 1.707 8.3359 3.625 13.402 8.0938-0.62891-1.7383-1.2305-3.418-1.8281-5.0664v0zm-11.363-3.6289c-3.3008-1.4375-5.9961-2.6094-8.0352-4.9453 2.1562 0.83984 4.3164 1.4062 6.3867 1.918 5.9336 1.5273 11.062 2.8477 14.301 10.402-4.7695-3.9258-9.1172-5.8164-12.652-7.375z" fill="#1b1817"/>
</g>
<path d="m121.5 152.61c0-0.03125-0.03125-0.03125-0.03125-0.0625-0.29688-1.0195-0.50781-2.0078-0.59766-2.9648-0.39063-0.78125-0.80859-1.5-1.2891-2.1602 0.59766 1.6172 1.1992 3.2969 1.7695 5.0664 0.027344 0.058593 0.089844 0.089843 0.14844 0.12109-0.03125 0-0.03125 0 0 0z" fill="#1b1817"/>
<path d="m106.57 140.8c-2.0703-0.54297-4.2305-1.082-6.3867-1.9219 2.0391 2.3086 4.7344 3.4805 8.0352 4.9492 3.5352 1.5273 7.8828 3.4492 12.652 7.4062-3.207-7.5859-8.3672-8.9062-14.301-10.434z" fill="#1b1817"/>
<path d="m121.8 151.74c0.03125 0.03125 0.03125 0.0625 0.03125 0.12109 0.058594 0.12109 0.11719 0.26953 0.14844 0.39062 0 0.027344 0.03125 0.089844 0.03125 0.11719 0.027344 0.0625 0.058594 0.15234 0.058594 0.21094 0.03125-0.03125 0.03125-0.058593 0.03125-0.089843 0.32812-3.6289 2.0664-7.0469 3.7773-10.344 2.3086-4.5273 4.707-9.2344 3.5078-14.57-0.03125-0.15234-0.15234-0.24219-0.30078-0.27344-0.14844 0-0.30078 0.09375-0.32812 0.24219-0.78125 2.1875-1.9805 4.3477-3.2383 6.625-2.5195 4.5-5.0703 9.0859-4.7383 14.633 0.35938 0.96094 0.6875 1.9492 1.0195 2.9375zm4.2852-17.211c1.082-1.918 2.1016-3.7461 2.8516-5.6055 0.59766 4.6172-1.4688 8.6641-3.6602 12.953-1.4688 2.8477-2.9375 5.7578-3.5977 8.875-1.168-6.2383 1.6797-11.305 4.4062-16.223z" fill="#1b1817"/>
<path d="m121.86 152.64c-0.058594 0.03125-0.11719 0.0625-0.17969 0.0625-0.058593 0-0.14844-0.03125-0.21094-0.0625 0.0625 0.12109 0.17969 0.18359 0.30078 0.18359h0.03125c0.12109 0 0.23828-0.089844 0.26953-0.21094-0.03125-0.0625-0.058594-0.15234-0.058594-0.21094 0 0.058594-0.0625 0.14844-0.15234 0.23828z" fill="#1b1817"/>
<path d="m121.8 151.74c-0.33203-0.98828-0.66016-1.9492-1.0195-2.9062 0 0.26953 0.03125 0.50781 0.058594 0.77734 0.35937 0.62891 0.66016 1.3516 0.96094 2.1289z" fill="#1b1817"/>
<path d="m122.01 152.25c-0.0625-0.12109-0.089843-0.26953-0.15234-0.39062 0.0625 0.17969 0.12109 0.35938 0.17969 0.50781-0.027344-0.058594-0.027344-0.089844-0.027344-0.11719z" fill="#1b1817"/>
<path d="m121.86 151.86c0-0.03125-0.027344-0.058593-0.027344-0.12109 0 0.03125 0 0.03125 0.027344 0.03125-0.027344 0.03125-0.027344 0.058593 0 0.089843z" fill="#1b1817"/>
<path d="m121.86 152.64c0.089843-0.058594 0.15234-0.14844 0.15234-0.26953-0.0625-0.17969-0.12109-0.35938-0.17969-0.50781 0-0.03125 0-0.058593-0.03125-0.058593 0-0.03125 0-0.03125-0.03125-0.03125-0.30078-0.78125-0.59766-1.4688-0.95703-2.1289 0.11719 0.96094 0.29688 1.9492 0.59766 2.9688 0 0.027344 0 0.027344 0.03125 0.058594 0.058594 0.0625 0.11719 0.0625 0.20703 0.0625 0.09375-0.03125 0.18359-0.0625 0.21094-0.09375z" fill="#1b1817"/>
<path d="m125.27 141.88c2.1914-4.2891 4.2578-8.3359 3.6602-12.953-0.75 1.8594-1.7695 3.6875-2.8516 5.6055-2.7578 4.918-5.5742 9.9844-4.4062 16.223 0.66016-3.1172 2.1602-6.0586 3.5977-8.875z" fill="#1b1817"/>
<path d="m123.59 160.26c-0.11719-0.48047-0.23828-0.98828-0.35938-1.4375-0.23828-0.26953-0.48047-0.53906-0.6875-0.83984-1.9492-2.3398-3.7773-4.5273-6.7188-5.457-1.3477-0.42188-2.7266-0.35938-4.2266-0.33203-2.7266 0.089844-5.8164 0.17969-9.2344-2.7891-0.12109-0.089844-0.30078-0.11719-0.41797-0.027344-0.12109 0.089844-0.18359 0.26953-0.09375 0.41797 3.0312 6.7188 7.3164 6.8984 11.457 7.0781 2.1875 0.089844 4.2578 0.17969 6.1758 1.1992 0.53906 0.26953 1.0195 0.62891 1.5273 0.95703 0.87109 0.63281 1.7109 1.1992 2.6094 1.3203v-0.058594-0.03125zm-2.2188-1.7695c-0.50781-0.35938-1.0195-0.71875-1.5859-1.0195-2.0391-1.0781-4.2891-1.168-6.4766-1.2578-3.8086-0.14844-7.4375-0.30078-10.227-5.3672 3.1172 2.1875 5.9688 2.0977 8.5156 2.0078 1.4414-0.058593 2.7578-0.089843 3.9883 0.30078 2.7578 0.87109 4.5273 3 6.418 5.2461 0.26953 0.33203 0.56641 0.66016 0.86719 1.0195-0.48047-0.23828-0.98828-0.57031-1.5-0.92969z" fill="#1b1817"/>
<path d="m123.62 159.27c-0.14844-0.15234-0.26953-0.30078-0.39062-0.44922 0.12109 0.47656 0.24219 0.95703 0.35938 1.4375 0-0.35937 0.03125-0.6875 0.03125-0.98828z" fill="#1b1817"/>
<path d="m115.62 153.15c-1.2305-0.39062-2.5781-0.32812-3.9883-0.30078-2.5508 0.089844-5.3672 0.17969-8.5156-2.0078 2.7891 5.0352 6.4141 5.1875 10.223 5.3672 2.1914 0.089843 4.4102 0.17969 6.4766 1.2578 0.57031 0.30078 1.082 0.66016 1.5898 1.0195 0.51172 0.35938 1.0195 0.71875 1.5 0.92969-0.30078-0.32812-0.57031-0.6875-0.87109-1.0195-1.8867-2.2461-3.6875-4.375-6.4141-5.2461z" fill="#1b1817"/>
<path d="m129.68 153.99c1.2891-0.98828 2.4883-1.9492 3.2383-3.0273 2.457-3.4805 3.2656-7.2891 2.1875-10.438-0.058594-0.14844-0.17969-0.23828-0.33203-0.23828-0.14844 0-0.26953 0.12109-0.29688 0.26953-1.1992 5.4258-3.7773 7.7969-6.0586 9.8633-2.1289 1.9492-4.1367 3.7812-4.707 7.7383 0.17969 0.6875 0.35938 1.4102 0.53906 2.1562 1.0195-2.9062 3.3594-4.7344 5.4297-6.3242zm-0.78125-3.0898c2.1602-1.9766 4.5586-4.168 5.9062-8.9023 0.42188 2.668-0.41797 5.7266-2.4297 8.5742-0.6875 1.0195-1.8867 1.918-3.1172 2.8789-1.7383 1.3477-3.6562 2.8477-4.8867 5.0078 0.48047-3.8711 2.3672-5.6094 4.5273-7.5586z" fill="#1b1817"/>
<path d="m123.59 160.35c0 0.03125 0 0.058594 0.03125 0.089844 0-0.03125 0-0.058594-0.03125-0.089844 0.03125 0 0.03125 0 0 0z" fill="#1b1817"/>
<path d="m123.89 160.62h0.0625c0.14844 0 0.26953-0.089844 0.32812-0.23828 0-0.03125 0.03125-0.089844 0.03125-0.12109-0.17969-0.71875-0.35938-1.4375-0.54297-2.1602-0.058594 0.36328-0.089844 0.72266-0.11719 1.1406 0.14844 0.17969 0.30078 0.35938 0.48047 0.53906 0.089843 0.089844 0.11719 0.24219 0.058593 0.35938-0.058593 0.12109-0.17969 0.17969-0.30078 0.17969-0.058593 0-0.14844 0-0.23828-0.027344 0 0.027344 0.027344 0.058594 0.027344 0.089844 0 0.17969 0.089844 0.23828 0.21094 0.23828z" fill="#1b1817"/>
<path d="m123.59 160.26v0.058594 0.0625c0.03125-0.0625 0-0.089844 0-0.12109z" fill="#1b1817"/>
<path d="m123.62 160.35c0.058594 0 0.14844 0.03125 0.23828 0.03125 0.12109 0 0.24219-0.089844 0.30078-0.17969 0.0625-0.12109 0.03125-0.26953-0.058593-0.35938-0.14844-0.17969-0.33203-0.35938-0.48047-0.54297-0.03125 0.30078-0.03125 0.66016-0.03125 0.99219 0 0 0.03125 0.027344 0.03125 0.058594z" fill="#1b1817"/>
<path d="m129.26 153.45c1.2305-0.96094 2.4297-1.8906 3.1172-2.8789 2.0117-2.8477 2.8516-5.9062 2.4297-8.5742-1.3477 4.7344-3.7773 6.9258-5.9062 8.9023-2.1602 1.9492-4.0469 3.6875-4.5273 7.5859 1.2305-2.1875 3.1484-3.6875 4.8867-5.0352z" fill="#1b1817"/>
<path d="m116.37 165.3c-4.0508-0.21094-8.6367-0.45312-11.934-3.9883-0.12109-0.12109-0.30078-0.15234-0.42188-0.0625s-0.17969 0.24219-0.12109 0.42188c0.83984 2.0391 1.8906 4.3164 3.8398 5.7578 2.3984 1.7656 6.0859 1.7383 9.625 1.7383 3.3867-0.03125 6.5977-0.03125 8.1562 1.5273 0 0 0.027344 0.03125 0.027344 0.03125-0.089844-0.80859-0.20703-1.6211-0.32812-2.4297-1.7383-2.6367-5.2188-2.8164-8.8438-2.9961zm1.8867 3.207h-0.89844c-3.4492 0-7.0156 0.03125-9.2344-1.6211-1.3789-0.98828-2.2812-2.5156-3-4.0156 3.3281 2.668 7.4648 2.8789 11.184 3.0898 4.1367 0.20703 7.4961 0.38672 8.7852 3.625-1.6484-0.98828-4.1367-1.0781-6.8359-1.0781z" fill="#1b1817"/>
<path d="m125.45 168.74c-0.058594-0.14844-0.14844-0.29688-0.23828-0.41797 0.12109 0.77734 0.23828 1.5898 0.32812 2.4297l0.03125 0.027344c-0.12109-0.71875-0.14844-1.4062-0.12109-2.0391z" fill="#1b1817"/>
<path d="m116.31 165.96c-3.7188-0.18359-7.8867-0.42188-11.184-3.0898 0.71875 1.5273 1.6211 3.0273 3 4.0156 2.2188 1.6523 5.7852 1.6211 9.2344 1.6211h0.89844c2.668 0 5.1562 0.089844 6.8359 1.0781-1.2891-3.2383-4.6172-3.418-8.7852-3.625z" fill="#1b1817"/>
<path d="m126.27 171.02c0.47656-1.7109 2.0977-3.2383 4.0156-5.0391 3.9883-3.7773 8.9336-8.4531 7.2266-17.719-0.03125-0.17969-0.17969-0.30078-0.32812-0.26953-0.18359 0-0.30078 0.11719-0.33203 0.29688-0.59766 5.6406-3.8086 9.1484-6.625 12.266-2.0117 2.2188-3.8398 4.2578-4.5273 6.7148 0.20703 1.1992 0.38672 2.4609 0.57031 3.75zm4.4648-10.047c2.5195-2.7578 5.3086-5.8438 6.418-10.434 0.53906 7.5273-3.7773 11.605-7.3164 14.961-1.5312 1.4688-2.9102 2.7617-3.6875 4.1406-0.21094-3.3906 2.0391-5.8477 4.5859-8.668z" fill="#1b1817"/>
<path d="m126.05 170.39c0.027343 0.14844-0.03125 0.29688-0.15234 0.35938-0.058594 0.027344-0.11719 0.027344-0.14844 0.027344-0.058594 0-0.12109 0-0.14844-0.058594 0 0.058594 0.027343 0.14844 0.027343 0.21094 0.03125 0.14844 0.15234 0.26953 0.30078 0.26953 0.12109 0 0.26953-0.089844 0.30078-0.21094-0.15234-1.2891-0.35938-2.5781-0.53906-3.7773-0.15234 0.48047-0.24219 0.98828-0.24219 1.5 0.26953 0.50781 0.44922 1.0469 0.60156 1.6797z" fill="#1b1817"/>
<path d="m125.9 170.78c0.12109-0.058594 0.21094-0.20703 0.15234-0.35938-0.15234-0.62891-0.35938-1.168-0.60156-1.6484-0.058594 0.62891 0 1.3203 0.12109 2.0078 0.058593 0.03125 0.12109 0.0625 0.14844 0.0625 0.0625-0.03125 0.12109-0.03125 0.17969-0.0625z" fill="#1b1817"/>
<path d="m129.8 165.5c3.5391-3.3281 7.8555-7.4336 7.3164-14.961-1.1094 4.5898-3.8984 7.6758-6.4141 10.434-2.5508 2.8203-4.7695 5.2773-4.5898 8.668 0.78125-1.3789 2.1602-2.6992 3.6875-4.1406z" fill="#1b1817"/>
<path d="m116.94 174.86c-2.5156-0.12109-5.3672-0.23828-9.8945-3.1484-0.11719-0.089844-0.29688-0.058594-0.41797 0.03125-0.12109 0.089843-0.14844 0.26953-0.058594 0.39062 2.5781 5.2461 5.0938 5.5156 8.5742 5.875 2.8164 0.30078 6.2969 0.66016 11.184 3.75 0-0.42187-0.03125-0.8125-0.03125-1.2305-3.8086-5.4258-6.2656-5.5469-9.3555-5.668zm-1.707 2.4883c-3.1172-0.32812-5.2773-0.53906-7.4961-4.4375 4.1094 2.3984 6.8945 2.5195 9.2031 2.6094 2.9102 0.12109 5.0703 0.23828 8.4883 4.8867-4.3477-2.457-7.5859-2.7891-10.195-3.0586z" fill="#1b1817"/>
<path d="m126.59 181.85c0.03125 0 0.058594 0 0.12109-0.03125-0.12109-0.058594-0.21094-0.21094-0.17969-0.35938 0.027344-0.17969 0.058594-0.35938 0.089844-0.53906-0.089844-0.15234-0.17969-0.26953-0.30078-0.42188 0 0.42188 0.03125 0.80859 0.03125 1.2305 0.027343 0 0.058593 0.03125 0.058593 0.03125 0.058594 0.089844 0.12109 0.089844 0.17969 0.089844z" fill="#1b1817"/>
<path d="m116.91 175.52c-2.2812-0.089843-5.0664-0.21094-9.207-2.6094 2.2188 3.8984 4.3789 4.1094 7.4961 4.4375 2.6406 0.26953 5.8477 0.60156 10.195 3.0586-3.418-4.6484-5.5781-4.7383-8.4844-4.8867z" fill="#1b1817"/>
<path d="m127.13 181.73c1.5586-2.3672 3.9297-4.0469 6.2383-5.668 4.4375-3.1484 9.0234-6.4141 8.4844-14.75 0-0.17969-0.14844-0.30078-0.30078-0.30078-0.17969 0-0.32813 0.089844-0.35938 0.26953-0.89844 3.9297-4.1094 6.7773-7.1641 9.5352-2.8789 2.5781-5.8789 5.2461-7.0469 8.8438 0.027344 0.72266 0.058594 1.4688 0.058594 2.2188 0-0.089844 0.03125-0.11719 0.089843-0.14844zm7.2852-10.465c2.668-2.3984 5.3984-4.8281 6.7773-8.0039-0.23828 6.5352-4.1367 9.3242-8.2461 12.23-1.9492 1.3789-3.9258 2.7891-5.4844 4.6484 1.0195-3.5664 3.9258-6.1445 6.9531-8.875z" fill="#1b1817"/>
<path d="m126.59 180.95c0.089844 0.12109 0.17969 0.24219 0.26953 0.39063 0.089844 0.12109 0.058594 0.30078-0.03125 0.42187-0.027343 0.027344-0.089843 0.058594-0.11719 0.089844h0.027344c0.03125 0 0.0625 0.027344 0.12109 0.027344 0.058594 0 0.12109 0 0.17969-0.058594 0-0.75-0.03125-1.5-0.058594-2.2188-0.17969 0.44922-0.30078 0.87109-0.39062 1.3477z" fill="#1b1817"/>
<path d="m126.86 181.34c-0.089843-0.12109-0.17969-0.26953-0.26953-0.39063-0.03125 0.17969-0.058594 0.35938-0.089844 0.54297-0.03125 0.14844 0.058594 0.26953 0.17969 0.35938 0.058594 0 0.089844-0.03125 0.12109-0.089844 0.14844-0.12109 0.14844-0.30078 0.058593-0.42187z" fill="#1b1817"/>
<path d="m132.95 175.49c4.1094-2.9062 8.0078-5.6953 8.2461-12.23-1.3789 3.1758-4.1094 5.6055-6.7773 8.0039-3.0273 2.7305-5.9336 5.3086-6.9531 8.875 1.5586-1.8594 3.5664-3.2695 5.4844-4.6484z" fill="#1b1817"/>
<path d="m112.77 184.07c-2.1289 0.47656-4.1641 0.92969-6.0859 0.32812-0.14844-0.058593-0.29688 0.03125-0.38672 0.14844-0.09375 0.12109-0.0625 0.30078 0.058594 0.42188 3.9258 3.5977 8.2734 3.1484 10.645 2.9062 0.41797-0.027344 0.77734-0.089844 1.0469-0.089844 1.8008-0.027344 3.6914 0.39062 5.4883 0.8125 0.96094 0.20703 1.8594 0.41797 2.7305 0.57031 0-0.42187 0.027344-0.8125 0.027344-1.2031-5.0078-5.8164-9.5039-4.7969-13.523-3.8945zm10.945 3.8672c-1.7695-0.42188-3.5664-0.80859-5.3984-0.80859h-0.26953c-0.29688 0-0.6875 0.058594-1.1094 0.089844-2.1562 0.20703-5.6641 0.56641-9.0547-1.8906 1.6484 0.17969 3.3008-0.21094 5.0703-0.59766 4.0156-0.90234 8.1523-1.832 12.922 3.6875-0.71875-0.15234-1.4414-0.30078-2.1602-0.48047z" fill="#1b1817"/>
<path d="m126.5 189.19c-0.089844-0.089844-0.12109-0.21094-0.089844-0.32812 0.058594-0.17969 0.12109-0.35938 0.21094-0.53906-0.089844-0.12109-0.21094-0.24219-0.30078-0.36328 0 0.39062-0.03125 0.8125-0.03125 1.2031 0.0625 0 0.15234 0 0.21094 0.027344z" fill="#1b1817"/>
<path d="m112.92 184.73c-1.7383 0.38672-3.418 0.77734-5.0664 0.59766 3.3867 2.457 6.8945 2.0977 9.0547 1.8906 0.44922-0.0625 0.80859-0.089844 1.1094-0.089844h0.26953c1.8281 0 3.6289 0.41797 5.3945 0.80859 0.75 0.17969 1.4727 0.32812 2.1289 0.48047-4.7344-5.5469-8.875-4.6172-12.891-3.6875z" fill="#1b1817"/>
<path d="m126.98 188.71c0.027344 0.089843 0.027344 0.21094 0 0.30078v0.17969c0.83984-0.35938 1.918-0.75 3.1758-1.1992 5.6094-1.9492 14.094-4.9453 13.855-13.043 0-0.14844-0.089844-0.26953-0.21094-0.30078-0.12109-0.058594-0.26953 0-0.35938 0.089843-5.4883 6.1797-9.3242 8.0664-12.145 9.4766-1.918 0.96094-3.3281 1.6484-4.2578 3.2969-0.03125 0.39062-0.058594 0.8125-0.058594 1.1992zm4.5859-3.8945c2.6094-1.293 6.4766-3.2109 11.754-8.9688-0.41797 6.9883-8.1836 9.7148-13.402 11.547-0.96094 0.32812-1.8281 0.62891-2.5469 0.92969 0.80859-1.832 2.1562-2.4883 4.1953-3.5078z" fill="#1b1817"/>
<path d="m126.68 189.19h-0.058594c-0.03125 0-0.089844 0-0.12109-0.027344 0.058594 0.058594 0.14844 0.089844 0.23828 0.089844 0.0625 0 0.089843 0 0.15234-0.03125 0.027344 0 0.027344-0.03125 0.058594-0.03125v-0.17969c-0.058594 0.12109-0.14844 0.17969-0.26953 0.17969z" fill="#1b1817"/>
<path d="m126.98 188.71c0-0.41797 0.027344-0.80859 0.027344-1.1992-0.14844 0.24219-0.26953 0.48047-0.35938 0.78125 0.089844 0.12109 0.21094 0.23828 0.30078 0.35938 0 0.03125 0 0.03125 0.03125 0.058594z" fill="#1b1817"/>
<path d="m126.98 188.74v0 0.30078c0.027344-0.12109 0.027344-0.21094 0-0.30078z" fill="#1b1817"/>
<path d="m126.68 189.19c0.12109 0 0.23828-0.058594 0.30078-0.17969v-0.30078c0-0.027344-0.03125-0.058594-0.03125-0.058594-0.089844-0.12109-0.21094-0.23828-0.30078-0.35938-0.058594 0.17969-0.14844 0.35938-0.20703 0.53906-0.03125 0.12109 0 0.23828 0.089844 0.33203 0.027344 0 0.089844 0 0.11719 0.027344z" fill="#1b1817"/>
<path d="m143.32 175.85c-5.2461 5.7578-9.1445 7.6758-11.754 8.9688-2.0391 1.0195-3.3867 1.6758-4.2266 3.5078 0.71875-0.30078 1.5898-0.60156 2.5469-0.92969 5.25-1.832 13.016-4.5586 13.434-11.547z" fill="#1b1817"/>
<g clip-path="url(#a)">
<path d="m144.02 211.59c-3.4805-3.1172-7.707-5.5781-11.934-6.8945l-0.0625-0.03125c-0.14844-0.058593-0.20703-0.058593-0.29688-2.8789-0.089844-2.2773-0.15234-5.7578-0.21094-10.375h-7.4375-3.6875l0.089843 13.074c0 0.089844-0.058593 0.17969-0.14844 0.17969-5.5469 0.89844-10.465 3.6875-14.184 8.0352-3.5391 4.1367-5.6953 9.4453-6.1172 14.961-0.86719 11.336 3.8398 20.539 13.645 26.598 0.17969 0.11719 0.17969 0.38672 0.17969 2.0078 0 0.77734 0 1.7383 0.058594 2.668l25.488 0.089844 0.058593-4.6172c0-0.058594 0.03125-0.12109 0.089844-0.14844 7.4062-4.1406 12.203-11.426 13.164-19.973 0.89844-8.6328-2.25-16.91-8.6953-22.695zm-6.6875 29.984c-2.7305 2.668-6.5352 4.1055-10.555 4.1055-1.4688 0-2.9688-0.17969-4.4688-0.59766-5.3945-1.4414-9.4453-5.1562-10.793-9.9258-1.168-4.3789-0.59766-8.7266 1.6211-12.234 2.0078-3.2383 5.2148-5.4844 8.8125-6.2031 6.3555-1.2617 11.543-0.03125 14.633 3.4766 2.8203 2.6094 4.5586 6.8047 4.5859 11.215 0.0625 4.0781-1.3164 7.7031-3.8359 10.164z" fill="#1b1817"/>
</g>
</g>
</svg>
